<?xml version="1.0" encoding="UTF-8"?>
<svg version="1.1" xmlns="http://www.w3.org/2000/svg" width="1139" height="1139">
  <path d="M0 0 C375.87 0 751.74 0 1139 0 C1139 375.87 1139 751.74 1139 1139 C763.13 1139 387.26 1139 0 1139 C0 763.13 0 387.26 0 0 Z " fill="#000000" transform="translate(0,0)"/>
  <path d="M0 0 C7.26 4.83 14.27 9.9 20.91 15.56 C21.6 16.12 22.29 16.68 23 17.25 C26.81 20.41 29.89 23.69 32.91 27.62 C36.81 32.68 41.16 36.69 46.91 39.56 C51.96 39.82 56.52 39.2 61.41 38 C62.14 37.82 62.87 37.65 63.63 37.46 C68.66 36.22 73.59 34.75 78.53 33.18 C123.55 18.92 171.02 12.53 217.97 8.87 C218.74 8.81 219.52 8.75 220.32 8.69 C242.25 6.99 264.18 6.35 286.18 6.32 C289.9 6.31 293.63 6.28 297.35 6.25 C319.49 6.15 340.69 8.03 361.91 14.56 C362.73 14.81 363.55 15.05 364.39 15.31 C402.06 26.8 437.35 45.75 467.91 70.56 C468.85 71.31 469.8 72.07 470.77 72.85 C476.11 77.15 481.27 81.6 486.32 86.22 C487.72 87.48 489.11 88.74 490.54 89.95 C496.59 95.12 502.2 100.7 507.81 106.33 C509.46 107.99 511.13 109.65 512.79 111.31 C518.37 116.89 523.8 122.54 528.91 128.56 C529.95 129.75 531 130.94 532.05 132.13 C539.29 140.39 546.23 148.83 552.91 157.56 C553.64 158.51 553.64 158.51 554.39 159.49 C570.74 180.8 584.94 203.49 596.91 227.56 C597.37 228.48 597.37 228.48 597.84 229.41 C616.48 267.11 624.57 311.02 627.91 352.56 C627.99 353.56 628.08 354.57 628.17 355.6 C629.15 368.63 629.13 381.67 629.15 394.73 C629.15 397.44 629.16 400.15 629.19 402.87 C629.35 423.46 628.67 442.86 622.22 462.56 C621.87 463.65 621.52 464.74 621.16 465.87 C616.03 481.71 609.73 496.86 601.91 511.56 C601.53 512.28 601.15 513 600.76 513.74 C590.03 533.99 576.58 552 561.91 569.56 C561.45 570.11 560.99 570.66 560.52 571.22 C554.42 578.53 548.15 585.47 541.34 592.13 C539.32 594.14 537.48 596.18 535.66 598.37 C531.71 603 527.21 607.02 522.74 611.13 C518.55 614.99 514.47 618.94 510.47 623 C506.78 626.73 503.02 630.32 499.02 633.73 C496.85 635.61 494.74 637.55 492.64 639.5 C486.59 645.11 480.35 650.4 473.91 655.56 C472.8 656.47 471.69 657.38 470.58 658.29 C445.99 678.46 419.97 694.64 389.59 704.31 C388.73 704.59 387.87 704.87 386.98 705.16 C367.37 711.13 347.31 711.07 327.02 711.01 C323.84 711 320.66 711 317.48 711.03 C288.66 711.23 260.35 709.47 232.32 702.18 C229.96 701.57 227.59 701.01 225.22 700.45 C208 696.28 191.38 689.98 175.08 683.08 C169.01 680.54 162.84 678.38 156.62 676.25 C150.58 674.17 144.61 671.93 138.66 669.62 C104.06 654.24 104.06 654.24 67.97 654.12 C63.05 656.32 58.47 659.06 53.85 661.82 C39.04 670.55 22.81 675.37 5.55 670.96 C1.28 669.4 -2.38 667.19 -6.09 664.56 C-6.8 664.08 -7.51 663.6 -8.24 663.11 C-21.5 653.01 -26.17 636.35 -28.46 620.69 C-32.82 591.06 -59.11 566.04 -81.09 547.56 C-82.14 546.64 -83.18 545.72 -84.23 544.8 C-94.71 535.58 -105.52 527.76 -117.84 521.18 C-118.63 520.77 -119.41 520.35 -120.21 519.92 C-130.62 514.43 -130.62 514.43 -142.07 513.87 C-151.34 517.04 -158.66 525.36 -165.6 531.93 C-177.35 542.85 -188.24 548.3 -204.48 547.9 C-217.63 546.65 -227.74 537.17 -236.09 527.56 C-242.53 518.66 -245.63 509.96 -245.41 499 C-245.41 497.8 -245.41 497.8 -245.42 496.58 C-245.25 478.39 -236.1 461.57 -223.57 448.85 C-207.78 433.54 -188.07 422.08 -167.09 415.56 C-166.02 415.22 -164.94 414.88 -163.84 414.54 C-148.53 410.52 -130.13 410.8 -115.09 415.56 C-113.92 415.93 -113.92 415.93 -112.72 416.31 C-72.85 429.16 -40.44 455.4 -9.47 482.76 C12.99 504.52 12.99 504.52 40.66 514.75 C44.01 514.46 45.43 513.89 47.91 511.56 C67.12 480.5 62.27 432.08 62.22 396.83 C62.22 393.16 62.22 389.48 62.24 385.81 C62.57 318.4 53.78 226.32 8.91 171.56 C8.31 170.72 8.31 170.72 7.71 169.86 C4.73 167.71 1.47 167.5 -2.09 167.56 C-4.75 168.27 -6.88 169 -9.34 170.12 C-10.05 170.43 -10.75 170.73 -11.48 171.05 C-43.21 185.13 -73.23 202.49 -100.09 224.56 C-100.65 225.02 -101.21 225.47 -101.79 225.94 C-108.51 231.44 -114.83 237.14 -120.9 243.36 C-122.75 245.21 -124.62 246.86 -126.66 248.5 C-131.5 252.56 -135.25 257.57 -139.09 262.56 C-139.51 263.09 -139.92 263.62 -140.34 264.17 C-151.71 278.97 -160.7 295.3 -161.59 314.31 C-162.29 328.02 -169.3 338.11 -178.99 347.43 C-190.43 357.52 -200.72 360.74 -215.75 360.11 C-227.9 359.15 -238.76 354.32 -248.09 346.56 C-248.79 346.03 -249.48 345.49 -250.19 344.95 C-261.41 335.89 -269.46 322.24 -271.46 307.92 C-274.12 273.32 -250.55 244.57 -229.56 219.32 C-227.5 216.84 -225.49 214.32 -223.47 211.81 C-219.86 207.39 -216.05 203.19 -212.16 199.02 C-209.32 195.95 -206.67 192.8 -204.09 189.5 C-199.6 183.91 -194.6 178.88 -189.53 173.81 C-188.73 173 -187.93 172.2 -187.1 171.37 C-182.25 166.57 -177.27 162.01 -172.09 157.56 C-170.97 156.56 -169.85 155.56 -168.74 154.56 C-146.34 134.65 -121.43 118.4 -95.52 103.48 C-93.81 102.49 -92.09 101.48 -90.38 100.48 C-88.2 99.2 -86 97.96 -83.78 96.75 C-77.95 93.66 -77.95 93.66 -75.12 88.07 C-76.3 83.81 -78.06 80.9 -80.66 77.37 C-81.58 76.06 -82.5 74.74 -83.42 73.42 C-83.87 72.77 -84.33 72.12 -84.8 71.45 C-95.51 55.86 -98.71 41.29 -97.09 22.56 C-94.47 10.37 -86.46 -1.43 -76.09 -8.44 C-49.97 -23.06 -24.12 -15.63 0 0 Z " fill="#C8FD10" transform="translate(370.094970703125,202.440673828125)"/>
  <path d="M0 0 C52.47 -1.65 99.25 17.09 137.87 52.07 C142.32 56.26 146.63 60.58 150.93 64.92 C152.82 66.84 154.73 68.74 156.63 70.64 C162.59 76.62 168.43 82.62 173.87 89.07 C174.79 90.12 175.72 91.16 176.65 92.21 C196.06 114.29 213.42 138.91 226.87 165.07 C227.19 165.67 227.5 166.28 227.83 166.9 C243.69 197.41 249.94 232.57 250.07 266.67 C250.08 267.82 250.08 268.98 250.09 270.17 C250.1 272.59 250.11 275.02 250.11 277.45 C250.12 281.1 250.15 284.75 250.18 288.4 C250.38 332.84 237.3 365.61 208.46 399.04 C205.98 401.94 203.57 404.9 201.18 407.88 C197.99 411.81 194.66 415.44 190.99 418.92 C189.18 420.75 187.53 422.61 185.86 424.56 C181.36 429.74 176.54 434.59 171.69 439.43 C170.13 441 168.58 442.57 167.03 444.14 C160.63 450.57 153.98 456.42 146.87 462.07 C145.83 462.94 144.79 463.82 143.77 464.71 C107.28 496.07 65.97 514.13 17.5 510.76 C-25.45 506.74 -111.01 487.39 -141.13 455.07 C-147.75 445.6 -142.79 427.22 -140.96 416.65 C-138.58 403.2 -135.46 390.09 -131.74 376.95 C-130.18 371.38 -128.89 365.8 -127.76 360.13 C-127.6 359.37 -127.44 358.61 -127.28 357.82 C-124.98 345.86 -124.97 333.89 -125.01 321.76 C-125.01 320.43 -125.01 320.43 -125.01 319.07 C-125.23 228.29 -129.92 142.74 -166.42 58.43 C-169.36 51.63 -172.03 44.84 -174.19 37.76 C-174.41 37.07 -174.63 36.38 -174.85 35.67 C-176.06 31.47 -176.35 28.29 -175.13 24.07 C-157.52 5.11 -114.38 7.47 -90.56 5.45 C-86.91 5.14 -83.27 4.81 -79.62 4.48 C-53.12 2.09 -26.59 0.86 0 0 Z " fill="#000000" transform="translate(651.130615234375,306.9310302734375)"/>
</svg>
