<svg width="0" height="0" class="hidden">
  <symbol xmlns="http://www.w3.org/2000/svg" fill="currentColor" viewBox="0 0 16 16" id="nav-icon-tunelist">
    <path d="M12 13c0 1.105-1.12 2-2.5 2S7 14.105 7 13s1.12-2 2.5-2 2.5.895 2.5 2z"></path>
    <path fill-rule="evenodd" d="M12 3v10h-1V3h1z"></path>
    <path d="M11 2.82a1 1 0 0 1 .804-.98l3-.6A1 1 0 0 1 16 2.22V4l-5 1V2.82z"></path>
    <path fill-rule="evenodd" d="M0 11.5a.5.5 0 0 1 .5-.5H4a.5.5 0 0 1 0 1H.5a.5.5 0 0 1-.5-.5zm0-4A.5.5 0 0 1 .5 7H8a.5.5 0 0 1 0 1H.5a.5.5 0 0 1-.5-.5zm0-4A.5.5 0 0 1 .5 3H8a.5.5 0 0 1 0 1H.5a.5.5 0 0 1-.5-.5z"></path>
  </symbol>
  <symbol xmlns="http://www.w3.org/2000/svg" fill="currentColor" viewBox="0 0 16 16" id="nav-icon-github">
    <path d="M8 0C3.58 0 0 3.58 0 8c0 3.54 2.29 6.53 5.47 7.59.4.07.55-.17.55-.38 0-.19-.01-.82-.01-1.49-2.01.37-2.53-.49-2.69-.94-.09-.23-.48-.94-.82-1.13-.28-.15-.68-.52-.01-.53.63-.01 1.08.58 1.23.82.72 1.21 1.87.87 2.33.66.07-.52.28-.87.51-1.07-1.78-.2-3.64-.89-3.64-3.95 0-.87.31-1.59.82-2.15-.08-.2-.36-1.02.08-2.12 0 0 .67-.21 2.2.82.64-.18 1.32-.27 2-.27.68 0 1.36.09 2 .27 1.53-1.04 2.2-.82 2.2-.82.44 1.1.16 1.92.08 2.12.51.56.82 1.27.82 2.15 0 3.07-1.87 3.75-3.65 3.95.29.25.54.73.54 1.48 0 1.07-.01 1.93-.01 2.2 0 .21.15.46.55.38A8.012 8.012 0 0 0 16 8c0-4.42-3.58-8-8-8z"></path>
  </symbol>
  <symbol xmlns="http://www.w3.org/2000/svg" fill="currentColor" viewBox="0 0 16 16" id="nav-icon-abc">
    <path d="M8.217 11.068c1.216 0 1.948-.869 1.948-2.31v-.702c0-1.44-.727-2.305-1.929-2.305-.742 0-1.328.347-1.499.889h-.063V3.983h-1.29V11h1.27v-.791h.064c.21.532.776.86 1.499.86zm-.43-1.025c-.66 0-1.113-.518-1.113-1.28V8.12c0-.825.42-1.343 1.098-1.343.684 0 1.075.518 1.075 1.416v.45c0 .888-.386 1.401-1.06 1.401zm-5.583 1.035c.767 0 1.201-.356 1.406-.737h.059V11h1.216V7.519c0-1.314-.947-1.783-2.11-1.783C1.355 5.736.75 6.42.69 7.27h1.216c.064-.323.313-.552.84-.552.527 0 .864.249.864.771v.464H2.346C1.145 7.953.5 8.568.5 9.496c0 .977.693 1.582 1.704 1.582zm.42-.947c-.44 0-.845-.235-.845-.718 0-.395.269-.684.84-.684h.991v.538c0 .503-.444.864-.986.864zm8.897.567c-.577-.4-.9-1.088-.9-1.983v-.65c0-1.42.894-2.338 2.305-2.338 1.352 0 2.119.82 2.139 1.806h-1.187c-.04-.351-.283-.776-.918-.776-.674 0-1.045.517-1.045 1.328v.625c0 .468.121.834.343 1.067l-.737.92z"></path>
    <path d="M14.469 9.414a.75.75 0 0 1 .117 1.055l-4 5a.75.75 0 0 1-1.116.061l-2.5-2.5a.75.75 0 1 1 1.06-1.06l1.908 1.907 3.476-4.346a.75.75 0 0 1 1.055-.117z"></path>
  </symbol>
  <symbol xmlns="http://www.w3.org/2000/svg" fill="currentColor" viewBox="0 0 16 16" class="" id="nav-icon-help">
    <path d="M8 15A7 7 0 1 1 8 1a7 7 0 0 1 0 14zm0 1A8 8 0 1 0 8 0a8 8 0 0 0 0 16z"></path>
    <path d="M5.255 5.786a.237.237 0 0 0 .241.247h.825c.138 0 .248-.113.266-.25.09-.656.54-1.134 1.342-1.134.686 0 1.314.343 1.314 1.168 0 .635-.374.927-.965 1.371-.673.489-1.206 1.06-1.168 1.987l.003.217a.25.25 0 0 0 .25.246h.811a.25.25 0 0 0 .25-.25v-.105c0-.718.273-.927 1.01-1.486.609-.463 1.244-.977 1.244-2.056 0-1.511-1.276-2.241-2.673-2.241-1.267 0-2.655.59-2.75 2.286zm1.557 5.763c0 .533.425.927 1.01.927.609 0 1.028-.394 1.028-.927 0-.552-.42-.94-1.029-.94-.584 0-1.009.388-1.009.94z"></path>
  </symbol>
  <symbol xmlns="http://www.w3.org/2000/svg" fill="currentColor" viewBox="0 0 16 16" id="nav-icon-mobile">
    <path fill-rule="evenodd" d="M11 1H5a1 1 0 0 0-1 1v6a.5.5 0 0 1-1 0V2a2 2 0 0 1 2-2h6a2 2 0 0 1 2 2v6a.5.5 0 0 1-1 0V2a1 1 0 0 0-1-1Zm1 13a1 1 0 0 1-1 1H5a1 1 0 0 1-1-1v-2a.5.5 0 0 0-1 0v2a2 2 0 0 0 2 2h6a2 2 0 0 0 2-2v-2a.5.5 0 0 0-1 0v2ZM1.713 7.954a.5.5 0 1 0-.419-.908c-.347.16-.654.348-.882.57C.184 7.842 0 8.139 0 8.5c0 .546.408.94.823 1.201.44.278 1.043.51 1.745.696C3.978 10.773 5.898 11 8 11c.099 0 .197 0 .294-.002l-1.148 1.148a.5.5 0 0 0 .708.708l2-2a.5.5 0 0 0 0-.708l-2-2a.5.5 0 1 0-.708.708l1.145 1.144L8 10c-2.04 0-3.87-.221-5.174-.569-.656-.175-1.151-.374-1.47-.575C1.012 8.639 1 8.506 1 8.5c0-.003 0-.059.112-.17.115-.112.31-.242.6-.376Zm12.993-.908a.5.5 0 0 0-.419.908c.292.134.486.264.6.377.113.11.113.166.113.169 0 .003 0 .065-.13.187-.132.122-.352.26-.677.4-.645.28-1.596.523-2.763.687a.5.5 0 0 0 .14.99c1.212-.17 2.26-.43 3.02-.758.38-.164.713-.357.96-.587.246-.229.45-.537.45-.919 0-.362-.184-.66-.412-.883-.228-.223-.535-.411-.882-.571ZM7.5 2a.5.5 0 0 0 0 1h1a.5.5 0 0 0 0-1h-1Z"></path>
  </symbol>
  <symbol xmlns="http://www.w3.org/2000/svg" fill="currentColor" viewBox="0 0 16 16" id="nav-icon-theme">
    <path d="M5.354 5.119 7.538.792A.52.52 0 0 1 8 .5c.183 0 .366.097.465.292l2.184 4.327 4.898.696A.54.54 0 0 1 16 6.32a.55.55 0 0 1-.17.445l-3.523 3.356.83 4.73c.078.443-.36.79-.746.592L8 13.187l-4.389 2.256a.5.5 0 0 1-.146.05c-.342.06-.668-.254-.6-.642l.83-4.73L.173 6.765a.55.55 0 0 1-.172-.403.6.6 0 0 1 .085-.302.51.51 0 0 1 .37-.245zM8 12.027a.5.5 0 0 1 .232.056l3.686 1.894-.694-3.957a.56.56 0 0 1 .162-.505l2.907-2.77-4.052-.576a.53.53 0 0 1-.393-.288L8.001 2.223 8 2.226z"></path>
  </symbol>
  <symbol xmlns="http://www.w3.org/2000/svg" fill="currentColor" viewBox="0 0 16 16" id="theme-icon-moon">
    <path d="M6 .278a.768.768 0 0 1 .08.858 7.208 7.208 0 0 0-.878 3.46c0 4.021 3.278 7.277 7.318 7.277.527 0 1.04-.055 1.533-.16a.787.787 0 0 1 .81.316.733.733 0 0 1-.031.893A8.349 8.349 0 0 1 8.344 16C3.734 16 0 12.286 0 7.71 0 4.266 2.114 1.312 5.124.06A.752.752 0 0 1 6 .278zM4.858 1.311A7.269 7.269 0 0 0 1.025 7.71c0 4.02 3.279 7.276 7.319 7.276a7.316 7.316 0 0 0 5.205-2.162c-.337.042-.68.063-1.029.063-4.61 0-8.343-3.714-8.343-8.29 0-1.167.242-2.278.681-3.286z"></path>
    <path d="M10.794 3.148a.217.217 0 0 1 .412 0l.387 1.162c.173.518.579.924 1.097 1.097l1.162.387a.217.217 0 0 1 0 .412l-1.162.387a1.734 1.734 0 0 0-1.097 1.097l-.387 1.162a.217.217 0 0 1-.412 0l-.387-1.162A1.734 1.734 0 0 0 9.31 6.593l-1.162-.387a.217.217 0 0 1 0-.412l1.162-.387a1.734 1.734 0 0 0 1.097-1.097l.387-1.162zM13.863.099a.145.145 0 0 1 .274 0l.258.774c.115.346.386.617.732.732l.774.258a.145.145 0 0 1 0 .274l-.774.258a1.156 1.156 0 0 0-.732.732l-.258.774a.145.145 0 0 1-.274 0l-.258-.774a1.156 1.156 0 0 0-.732-.732l-.774-.258a.145.145 0 0 1 0-.274l.774-.258c.346-.115.617-.386.732-.732L13.863.1z"></path>
  </symbol>
  <symbol xmlns="http://www.w3.org/2000/svg" fill="currentColor" viewBox="0 0 16 16" id="theme-icon-sun">
    <path d="M8 11a3 3 0 1 1 0-6 3 3 0 0 1 0 6zm0 1a4 4 0 1 0 0-8 4 4 0 0 0 0 8zM8 0a.5.5 0 0 1 .5.5v2a.5.5 0 0 1-1 0v-2A.5.5 0 0 1 8 0zm0 13a.5.5 0 0 1 .5.5v2a.5.5 0 0 1-1 0v-2A.5.5 0 0 1 8 13zm8-5a.5.5 0 0 1-.5.5h-2a.5.5 0 0 1 0-1h2a.5.5 0 0 1 .5.5zM3 8a.5.5 0 0 1-.5.5h-2a.5.5 0 0 1 0-1h2A.5.5 0 0 1 3 8zm10.657-5.657a.5.5 0 0 1 0 .707l-1.414 1.415a.5.5 0 1 1-.707-.708l1.414-1.414a.5.5 0 0 1 .707 0zm-9.193 9.193a.5.5 0 0 1 0 .707L3.05 13.657a.5.5 0 0 1-.707-.707l1.414-1.414a.5.5 0 0 1 .707 0zm9.193 2.121a.5.5 0 0 1-.707 0l-1.414-1.414a.5.5 0 0 1 .707-.707l1.414 1.414a.5.5 0 0 1 0 .707zM4.464 4.465a.5.5 0 0 1-.707 0L2.343 3.05a.5.5 0 1 1 .707-.707l1.414 1.414a.5.5 0 0 1 0 .708z"></path>
  </symbol>
  <symbol xmlns="http://www.w3.org/2000/svg" fill="currentColor" viewBox="0 0 16 16" id="theme-icon-star">
  <path d="M2.866 14.85c-.078.444.36.791.746.593l4.39-2.256 4.389 2.256c.386.198.824-.149.746-.592l-.83-4.73 3.522-3.356c.33-.314.16-.888-.282-.95l-4.898-.696L8.465.792a.513.513 0 0 0-.927 0L5.354 5.12l-4.898.696c-.441.062-.612.636-.283.95l3.523 3.356-.83 4.73zm4.905-2.767-3.686 1.894.694-3.957a.56.56 0 0 0-.163-.505L1.71 6.745l4.052-.576a.53.53 0 0 0 .393-.288L8 2.223l1.847 3.658a.53.53 0 0 0 .393.288l4.052.575-2.906 2.77a.56.56 0 0 0-.163.506l.694 3.957-3.686-1.894a.5.5 0 0 0-.461 0z"></path>
  </symbol>
  <symbol xmlns="http://www.w3.org/2000/svg" fill="currentColor" viewBox="0 0 16 16" id="theme-icon-cloud">
  <path d="M13.405 8.527a5.001 5.001 0 0 0-9.499-1.004A3.5 3.5 0 1 0 3.5 14.5H13a3 3 0 0 0 .405-5.973M8.5 5.5a4 4 0 0 1 3.976 3.555.5.5 0 0 0 .5.445H13a2 2 0 0 1-.001 4H3.5a2.5 2.5 0 1 1 .605-4.926.5.5 0 0 0 .596-.329A4 4 0 0 1 8.5 5.5"></path>
  </symbol>
  <symbol xmlns="http://www.w3.org/2000/svg" fill="currentColor" viewBox="0 0 16 16" id="theme-icon-rain">
  <path d="M4.158 12.025a.5.5 0 0 1 .316.633l-.5 1.5a.5.5 0 0 1-.948-.316l.5-1.5a.5.5 0 0 1 .632-.317m6 0a.5.5 0 0 1 .316.633l-.5 1.5a.5.5 0 0 1-.948-.316l.5-1.5a.5.5 0 0 1 .632-.317m-3.5 1.5a.5.5 0 0 1 .316.633l-.5 1.5a.5.5 0 0 1-.948-.316l.5-1.5a.5.5 0 0 1 .632-.317m6 0a.5.5 0 0 1 .316.633l-.5 1.5a.5.5 0 1 1-.948-.316l.5-1.5a.5.5 0 0 1 .632-.317m.747-8.498a5.001 5.001 0 0 0-9.499-1.004A3.5 3.5 0 1 0 3.5 11H13a3 3 0 0 0 .405-5.973M8.5 2a4 4 0 0 1 3.976 3.555.5.5 0 0 0 .5.445H13a2 2 0 0 1 0 4H3.5a2.5 2.5 0 1 1 .605-4.926.5.5 0 0 0 .596-.329A4 4 0 0 1 8.5 2"></path>
  </symbol>
  <symbol xmlns="http://www.w3.org/2000/svg" fill="currentColor" viewBox="0 0 16 16" id="theme-icon-rainbow">
  <path d="M8 4.5a7 7 0 0 0-7 7 .5.5 0 0 1-1 0 8 8 0 1 1 16 0 .5.5 0 0 1-1 0 7 7 0 0 0-7-7m0 2a5 5 0 0 0-5 5 .5.5 0 0 1-1 0 6 6 0 1 1 12 0 .5.5 0 0 1-1 0 5 5 0 0 0-5-5m0 2a3 3 0 0 0-3 3 .5.5 0 0 1-1 0 4 4 0 1 1 8 0 .5.5 0 0 1-1 0 3 3 0 0 0-3-3m0 2a1 1 0 0 0-1 1 .5.5 0 0 1-1 0 2 2 0 1 1 4 0 .5.5 0 0 1-1 0 1 1 0 0 0-1-1"></path>
  </symbol>
  <symbol xmlns="http://www.w3.org/2000/svg" fill="currentColor" viewBox="0 0 16 16" id="theme-icon-tree">
  <path d="M8.416.223a.5.5 0 0 0-.832 0l-3 4.5A.5.5 0 0 0 5 5.5h.098L3.076 8.735A.5.5 0 0 0 3.5 9.5h.191l-1.638 3.276a.5.5 0 0 0 .447.724H7V16h2v-2.5h4.5a.5.5 0 0 0 .447-.724L12.31 9.5h.191a.5.5 0 0 0 .424-.765L10.902 5.5H11a.5.5 0 0 0 .416-.777zM6.437 4.758A.5.5 0 0 0 6 4.5h-.066L8 1.401 10.066 4.5H10a.5.5 0 0 0-.424.765L11.598 8.5H11.5a.5.5 0 0 0-.447.724L12.69 12.5H3.309l1.638-3.276A.5.5 0 0 0 4.5 8.5h-.098l2.022-3.235a.5.5 0 0 0 .013-.507"></path>
  </symbol>
  <symbol xmlns="http://www.w3.org/2000/svg" fill="currentColor" viewBox="0 0 16 16" id="action-icon-launch">
    <path d="M9.752 6.193c.599.6 1.73.437 2.528-.362s.96-1.932.362-2.531c-.599-.6-1.73-.438-2.528.361-.798.8-.96 1.933-.362 2.532"></path>
    <path d="M15.811 3.312c-.363 1.534-1.334 3.626-3.64 6.218l-.24 2.408a2.56 2.56 0 0 1-.732 1.526L8.817 15.85a.51.51 0 0 1-.867-.434l.27-1.899c.04-.28-.013-.593-.131-.956a9 9 0 0 0-.249-.657l-.082-.202c-.815-.197-1.578-.662-2.191-1.277-.614-.615-1.079-1.379-1.275-2.195l-.203-.083a10 10 0 0 0-.655-.248c-.363-.119-.675-.172-.955-.132l-1.896.27A.51.51 0 0 1 .15 7.17l2.382-2.386c.41-.41.947-.67 1.524-.734h.006l2.4-.238C9.005 1.55 11.087.582 12.623.208c.89-.217 1.59-.232 2.08-.188.244.023.435.06.57.093q.1.026.16.045c.184.06.279.13.351.295l.029.073a3.5 3.5 0 0 1 .157.721c.055.485.051 1.178-.159 2.065m-4.828 7.475.04-.04-.107 1.081a1.54 1.54 0 0 1-.44.913l-1.298 1.3.054-.38c.072-.506-.034-.993-.172-1.418a9 9 0 0 0-.164-.45c.738-.065 1.462-.38 2.087-1.006M5.205 5c-.625.626-.94 1.351-1.004 2.09a9 9 0 0 0-.45-.164c-.424-.138-.91-.244-1.416-.172l-.38.054 1.3-1.3c.245-.246.566-.401.91-.44l1.08-.107zm9.406-3.961c-.38-.034-.967-.027-1.746.163-1.558.38-3.917 1.496-6.937 4.521-.62.62-.799 1.34-.687 2.051.107.676.483 1.362 1.048 1.928.564.565 1.25.941 1.924 1.049.71.112 1.429-.067 2.048-.688 3.079-3.083 4.192-5.444 4.556-6.987.183-.771.18-1.345.138-1.713a3 3 0 0 0-.045-.283 3 3 0 0 0-.3-.041Z"></path>
    <path d="M7.009 12.139a7.6 7.6 0 0 1-1.804-1.352A7.6 7.6 0 0 1 3.794 8.86c-1.102.992-1.965 5.054-1.839 5.18.125.126 3.936-.896 5.054-1.902Z"></path>
  </symbol>  
  <symbol xmlns="http://www.w3.org/2000/svg" fill="currentColor" viewBox="0 0 16 16" id="action-icon-wrap-up">
    <path fill-rule="evenodd" d="M7.776 5.553a.5.5 0 0 1 .448 0l6 3a.5.5 0 1 1-.448.894L8 6.56 2.224 9.447a.5.5 0 1 1-.448-.894l6-3z"></path>
  </symbol>
  <symbol xmlns="http://www.w3.org/2000/svg" fill="currentColor" viewBox="0 0 16 16" id="action-icon-wrap-down">
    <path fill-rule="evenodd" d="M1.553 6.776a.5.5 0 0 1 .67-.223L8 9.44l5.776-2.888a.5.5 0 1 1 .448.894l-6 3a.5.5 0 0 1-.448 0l-6-3a.5.5 0 0 1-.223-.67"></path>
  </symbol>
  <symbol xmlns="http://www.w3.org/2000/svg" fill="currentColor" viewBox="0 0 16 16" id="action-icon-music">
    <path d="M6 13c0 1.105-1.12 2-2.5 2S1 14.105 1 13s1.12-2 2.5-2 2.5.896 2.5 2m9-2c0 1.105-1.12 2-2.5 2s-2.5-.895-2.5-2 1.12-2 2.5-2 2.5.895 2.5 2"></path>
    <path fill-rule="evenodd" d="M14 11V2h1v9zM6 3v10H5V3z"></path>
    <path d="M5 2.905a1 1 0 0 1 .9-.995l8-.8a1 1 0 0 1 1.1.995V3L5 4z"></path>
  </symbol>
  <symbol xmlns="http://www.w3.org/2000/svg" fill="currentColor" viewBox="0 0 16 16" id="action-icon-records">
    <path d="M16 8A8 8 0 1 1 0 8a8 8 0 0 1 16 0m-8 3a3 3 0 1 0 0-6 3 3 0 0 0 0 6"></path>
    <path d="M8 15A7 7 0 1 1 8 1a7 7 0 0 1 0 14m0 1A8 8 0 1 0 8 0a8 8 0 0 0 0 16"></path>
    <path d="M 7.99 8.007 m -2.484 0 a 2.484 2.492 0 1 0 4.968 0 a 2.484 2.492 0 1 0 -4.968 0 Z M 7.99 8.007 m -1.49 0 a 1.49 1.497 0 0 1 2.98 0 a 1.49 1.497 0 0 1 -2.98 0 Z"></path>
  </symbol>
  <symbol xmlns="http://www.w3.org/2000/svg" fill="currentColor" viewBox="0 0 19 15" id="action-icon-records-crop">
    <path d="M16 8A8 8 0 1 1 0 8a8 8 0 0 1 16 0m-8 3a3 3 0 1 0 0-6 3 3 0 0 0 0 6"></path>
    <path d="M8 15A7 7 0 1 1 8 1a7 7 0 0 1 0 14m0 1A8 8 0 1 0 8 0a8 8 0 0 0 0 16"></path>
    <path d="M 7.99 8.007 m -2.484 0 a 2.484 2.492 0 1 0 4.968 0 a 2.484 2.492 0 1 0 -4.968 0 Z M 7.99 8.007 m -1.49 0 a 1.49 1.497 0 0 1 2.98 0 a 1.49 1.497 0 0 1 -2.98 0 Z"></path>
  </symbol>
  <symbol xmlns="http://www.w3.org/2000/svg" fill="currentColor" viewBox="0 0 16 16" id="action-icon-archives">
    <path d="M2.5 3.5a.5.5 0 0 1 0-1h11a.5.5 0 0 1 0 1zm2-2a.5.5 0 0 1 0-1h7a.5.5 0 0 1 0 1zM0 13a1.5 1.5 0 0 0 1.5 1.5h13A1.5 1.5 0 0 0 16 13V6a1.5 1.5 0 0 0-1.5-1.5h-13A1.5 1.5 0 0 0 0 6zm1.5.5A.5.5 0 0 1 1 13V6a.5.5 0 0 1 .5-.5h13a.5.5 0 0 1 .5.5v7a.5.5 0 0 1-.5.5z"></path>
  </symbol>
  <symbol xmlns="http://www.w3.org/2000/svg" fill="currentColor" viewBox="0 0 16 16" id="action-icon-books">
    <path d="M1 2.828c.885-.37 2.154-.769 3.388-.893 1.33-.134 2.458.063 3.112.752v9.746c-.935-.53-2.12-.603-3.213-.493-1.18.12-2.37.461-3.287.811zm7.5-.141c.654-.689 1.782-.886 3.112-.752 1.234.124 2.503.523 3.388.893v9.923c-.918-.35-2.107-.692-3.287-.81-1.094-.111-2.278-.039-3.213.492zM8 1.783C7.015.936 5.587.81 4.287.94c-1.514.153-3.042.672-3.994 1.105A.5.5 0 0 0 0 2.5v11a.5.5 0 0 0 .707.455c.882-.4 2.303-.881 3.68-1.02 1.409-.142 2.59.087 3.223.877a.5.5 0 0 0 .78 0c.633-.79 1.814-1.019 3.222-.877 1.378.139 2.8.62 3.681 1.02A.5.5 0 0 0 16 13.5v-11a.5.5 0 0 0-.293-.455c-.952-.433-2.48-.952-3.994-1.105C10.413.809 8.985.936 8 1.783"></path>
  </symbol>
  <symbol xmlns="http://www.w3.org/2000/svg" fill="currentColor" viewBox="0 0 17 16" id="action-icon-bookmarks">
    <path d="M2 4a2 2 0 0 1 2-2h6a2 2 0 0 1 2 2v11.5a.5.5 0 0 1-.777.416L7 13.101l-4.223 2.815A.5.5 0 0 1 2 15.5zm2-1a1 1 0 0 0-1 1v10.566l3.723-2.482a.5.5 0 0 1 .554 0L11 14.566V4a1 1 0 0 0-1-1z"></path>
    <path d="M4.268 1H12a1 1 0 0 1 1 1v11.768l.223.148A.5.5 0 0 0 14 13.5V2a2 2 0 0 0-2-2H6a2 2 0 0 0-1.732 1"></path>
  </symbol>
  <symbol xmlns="http://www.w3.org/2000/svg" fill="currentColor" viewBox="0 0 16 16" id="action-icon-search">
    <path d="M11.742 10.344a6.5 6.5 0 1 0-1.397 1.398h-.001q.044.06.098.115l3.85 3.85a1 1 0 0 0 1.415-1.414l-3.85-3.85a1 1 0 0 0-.115-.1zM12 6.5a5.5 5.5 0 1 1-11 0 5.5 5.5 0 0 1 11 0"></path>
  </symbol>
  <symbol xmlns="http://www.w3.org/2000/svg" fill="currentColor" viewBox="0 0 16 16" id="action-icon-list">
    <path fill-rule="evenodd" d="M2.5 12a.5.5 0 0 1 .5-.5h10a.5.5 0 0 1 0 1H3a.5.5 0 0 1-.5-.5m0-4a.5.5 0 0 1 .5-.5h10a.5.5 0 0 1 0 1H3a.5.5 0 0 1-.5-.5m0-4a.5.5 0 0 1 .5-.5h10a.5.5 0 0 1 0 1H3a.5.5 0 0 1-.5-.5"></path>
  </symbol>
  <symbol xmlns="http://www.w3.org/2000/svg" fill="currentColor" viewBox="0 0 16 16" id="action-icon-list-checked">
    <path fill-rule="evenodd" d="M5 11.5a.5.5 0 0 1 .5-.5h9a.5.5 0 0 1 0 1h-9a.5.5 0 0 1-.5-.5m0-4a.5.5 0 0 1 .5-.5h9a.5.5 0 0 1 0 1h-9a.5.5 0 0 1-.5-.5m0-4a.5.5 0 0 1 .5-.5h9a.5.5 0 0 1 0 1h-9a.5.5 0 0 1-.5-.5M3.854 2.146a.5.5 0 0 1 0 .708l-1.5 1.5a.5.5 0 0 1-.708 0l-.5-.5a.5.5 0 1 1 .708-.708L2 3.293l1.146-1.147a.5.5 0 0 1 .708 0m0 4a.5.5 0 0 1 0 .708l-1.5 1.5a.5.5 0 0 1-.708 0l-.5-.5a.5.5 0 1 1 .708-.708L2 7.293l1.146-1.147a.5.5 0 0 1 .708 0m0 4a.5.5 0 0 1 0 .708l-1.5 1.5a.5.5 0 0 1-.708 0l-.5-.5a.5.5 0 0 1 .708-.708l.146.147 1.146-1.147a.5.5 0 0 1 .708 0"></path>
  </symbol>
  <symbol xmlns="http://www.w3.org/2000/svg" fill="currentColor" viewBox="0 0 16 16" id="action-icon-save">
    <path d="M.5 9.9a.5.5 0 0 1 .5.5v2.5a1 1 0 0 0 1 1h12a1 1 0 0 0 1-1v-2.5a.5.5 0 0 1 1 0v2.5a2 2 0 0 1-2 2H2a2 2 0 0 1-2-2v-2.5a.5.5 0 0 1 .5-.5z"></path>
    <path d="M7.646 11.854a.5.5 0 0 0 .708 0l3-3a.5.5 0 0 0-.708-.708L8.5 10.293V1.5a.5.5 0 0 0-1 0v8.793L5.354 8.146a.5.5 0 1 0-.708.708l3 3z"></path>
  </symbol>
  <symbol xmlns="http://www.w3.org/2000/svg" fill="currentColor" viewBox="0 0 16 16" id="action-icon-delete">
    <path d="M11 1.5v1h3.5a.5.5 0 0 1 0 1h-.538l-.853 10.66A2 2 0 0 1 11.115 16h-6.23a2 2 0 0 1-1.994-1.84L2.038 3.5H1.5a.5.5 0 0 1 0-1H5v-1A1.5 1.5 0 0 1 6.5 0h3A1.5 1.5 0 0 1 11 1.5Zm-5 0v1h4v-1a.5.5 0 0 0-.5-.5h-3a.5.5 0 0 0-.5.5ZM4.5 5.029l.5 8.5a.5.5 0 1 0 .998-.06l-.5-8.5a.5.5 0 1 0-.998.06Zm6.53-.528a.5.5 0 0 0-.528.47l-.5 8.5a.5.5 0 0 0 .998.058l.5-8.5a.5.5 0 0 0-.47-.528ZM8 4.5a.5.5 0 0 0-.5.5v8.5a.5.5 0 0 0 1 0V5a.5.5 0 0 0-.5-.5Z"></path>
  </symbol>
  <symbol xmlns="http://www.w3.org/2000/svg" fill="currentColor" viewBox="0 0 16 16" id="action-icon-revert">
    <path d="M11.534 7h3.932a.25.25 0 0 1 .192.41l-1.966 2.36a.25.25 0 0 1-.384 0l-1.966-2.36a.25.25 0 0 1 .192-.41zm-11 2h3.932a.25.25 0 0 0 .192-.41L2.692 6.23a.25.25 0 0 0-.384 0L.342 8.59A.25.25 0 0 0 .534 9z"></path>
    <path fill-rule="evenodd" d="M8 3c-1.552 0-2.94.707-3.857 1.818a.5.5 0 1 1-.771-.636A6.002 6.002 0 0 1 13.917 7H12.9A5.002 5.002 0 0 0 8 3zM3.1 9a5.002 5.002 0 0 0 8.757 2.182.5.5 0 1 1 .771.636A6.002 6.002 0 0 1 2.083 9H3.1z"></path>
  </symbol>
  <symbol xmlns="http://www.w3.org/2000/svg" fill="currentColor" viewBox="0 0 16 16" id="action-icon-sort-az">
    <path fill-rule="evenodd" d="M10.082 5.629 9.664 7H8.598l1.789-5.332h1.234L13.402 7h-1.12l-.419-1.371h-1.781zm1.57-.785L11 2.687h-.047l-.652 2.157h1.351z"></path>
    <path d="M12.96 14H9.028v-.691l2.579-3.72v-.054H9.098v-.867h3.785v.691l-2.567 3.72v.054h2.645V14zM4.5 2.5a.5.5 0 0 0-1 0v9.793l-1.146-1.147a.5.5 0 0 0-.708.708l2 1.999.007.007a.497.497 0 0 0 .7-.006l2-2a.5.5 0 0 0-.707-.708L4.5 12.293V2.5z"></path>
  </symbol>
  <symbol xmlns="http://www.w3.org/2000/svg" fill="currentColor" viewBox="0 0 16 16" id="action-icon-thumbsup">
    <path d="M8.864.046C7.908-.193 7.02.53 6.956 1.466c-.072 1.051-.23 2.016-.428 2.59-.125.36-.479 1.013-1.04 1.639-.557.623-1.282 1.178-2.131 1.41C2.685 7.288 2 7.87 2 8.72v4.001c0 .845.682 1.464 1.448 1.545 1.07.114 1.564.415 2.068.723l.048.03c.272.165.578.348.97.484.397.136.861.217 1.466.217h3.5c.937 0 1.599-.477 1.934-1.064a1.86 1.86 0 0 0 .254-.912c0-.152-.023-.312-.077-.464.201-.263.38-.578.488-.901.11-.33.172-.762.004-1.149.069-.13.12-.269.159-.403.077-.27.113-.568.113-.857 0-.288-.036-.585-.113-.856a2.144 2.144 0 0 0-.138-.362 1.9 1.9 0 0 0 .234-1.734c-.206-.592-.682-1.1-1.2-1.272-.847-.282-1.803-.276-2.516-.211a9.84 9.84 0 0 0-.443.05 9.365 9.365 0 0 0-.062-4.509A1.38 1.38 0 0 0 9.125.111L8.864.046zM11.5 14.721H8c-.51 0-.863-.069-1.14-.164-.281-.097-.506-.228-.776-.393l-.04-.024c-.555-.339-1.198-.731-2.49-.868-.333-.036-.554-.29-.554-.55V8.72c0-.254.226-.543.62-.65 1.095-.3 1.977-.996 2.614-1.708.635-.71 1.064-1.475 1.238-1.978.243-.7.407-1.768.482-2.85.025-.362.36-.594.667-.518l.262.066c.16.04.258.143.288.255a8.34 8.34 0 0 1-.145 4.725.5.5 0 0 0 .595.644l.003-.001.014-.003.058-.014a8.908 8.908 0 0 1 1.036-.157c.663-.06 1.457-.054 2.11.164.175.058.45.3.57.65.107.308.087.67-.266 1.022l-.353.353.353.354c.043.043.105.141.154.315.048.167.075.37.075.581 0 .212-.027.414-.075.582-.05.174-.111.272-.154.315l-.353.353.353.354c.047.047.109.177.005.488a2.224 2.224 0 0 1-.505.805l-.353.353.353.354c.006.005.041.05.041.17a.866.866 0 0 1-.121.416c-.165.288-.503.56-1.066.56z"></path>
  </symbol>
</svg>