<?xml version="1.0" standalone="no"?>
<!DOCTYPE svg PUBLIC "-//W3C//DTD SVG 20010904//EN"
 "http://www.w3.org/TR/2001/REC-SVG-20010904/DTD/svg10.dtd">
<svg version="1.0" xmlns="http://www.w3.org/2000/svg"
 width="1139.000000pt" height="1139.000000pt" viewBox="0 0 1139.000000 1139.000000"
 preserveAspectRatio="xMidYMid meet">
<metadata>
Created by potrace 1.14, written by Peter Selinger 2001-2017
</metadata>
<g transform="translate(0.000000,1139.000000) scale(0.100000,-0.100000)"
fill="#000000" stroke="none">
<path d="M0 5695 l0 -5695 5695 0 5695 0 0 5695 0 5695 -5695 0 -5695 0 0
-5695z m3363 3820 c184 -39 519 -254 656 -421 81 -98 129 -129 195 -128 29 0
138 25 256 58 384 109 710 173 1085 215 543 61 1267 78 1513 35 440 -75 928
-310 1352 -650 163 -130 494 -458 650 -644 456 -542 696 -1001 818 -1565 66
-302 91 -551 99 -960 4 -262 2 -342 -11 -440 -27 -204 -80 -378 -183 -610
-170 -379 -459 -757 -908 -1187 -634 -607 -1005 -844 -1454 -931 -108 -20
-144 -22 -511 -22 -415 0 -485 5 -740 51 -211 38 -365 86 -775 239 -410 154
-660 241 -795 275 -141 36 -227 17 -390 -89 -35 -23 -101 -53 -146 -67 -72
-22 -96 -25 -191 -22 -96 3 -115 6 -174 34 -83 40 -164 120 -212 211 -36 70
-57 141 -76 271 -30 196 -168 392 -475 674 -72 66 -175 154 -229 194 -105 79
-311 188 -378 199 -60 10 -126 -28 -248 -140 -183 -169 -239 -198 -386 -199
-91 -1 -105 2 -159 28 -72 35 -190 145 -233 218 -89 147 -81 361 19 551 112
209 433 438 727 518 108 29 281 36 393 15 303 -57 647 -253 1037 -591 330
-285 484 -400 572 -425 49 -14 110 16 142 71 77 134 113 381 126 877 14 515
-9 967 -64 1248 -53 272 -238 807 -376 1090 -54 112 -114 188 -155 198 -40 10
-118 -18 -308 -112 -385 -189 -687 -398 -956 -664 -250 -246 -367 -451 -389
-684 -5 -57 -18 -118 -29 -144 -48 -111 -174 -238 -290 -293 -61 -29 -66 -29
-180 -25 -94 4 -130 10 -184 31 -200 77 -365 264 -399 452 -14 79 -6 227 16
290 89 255 412 693 790 1070 285 285 524 467 920 699 110 65 206 123 214 131
26 25 13 61 -72 192 -102 160 -127 225 -134 353 -9 168 32 283 140 393 101
101 205 145 347 146 41 0 106 -6 143 -14z"/>
<path d="M6285 8310 c-621 -33 -1092 -81 -1313 -135 -147 -36 -201 -67 -215
-124 -10 -39 27 -157 108 -346 298 -698 364 -1065 396 -2210 17 -585 10 -662
-85 -1035 -60 -233 -85 -379 -93 -533 l-6 -127 42 -40 c139 -132 1009 -445
1461 -525 52 -9 165 -19 250 -22 170 -5 274 10 436 63 192 63 447 212 669 391
358 288 849 851 965 1105 40 90 77 234 96 382 21 162 15 678 -10 836 -23 146
-77 356 -121 475 -138 371 -464 827 -893 1246 -306 300 -499 421 -838 524
-254 77 -459 95 -849 75z"/>
</g>
</svg>
